<?xml version="1.0" encoding="UTF-8"?>
<svg width="1048px" height="770px" viewBox="0 0 1048 770" version="1.1" xmlns="http://www.w3.org/2000/svg" xmlns:xlink="http://www.w3.org/1999/xlink">
    <!-- Generator: Sketch 54.1 (76490) - https://sketchapp.com -->
    <title>terrain</title>
    <desc>Created with Sketch.</desc>
    <g id="terrain" stroke="none" stroke-width="1" fill="none" fill-rule="evenodd">
        <polygon stroke="#000000" points="1048 770 1048 364.381597 999.691406 402.746094 965.324219 438.238281 921.78125 464.089844 885.835938 484.117188 856.398438 509.613281 823.257813 531.980469 783.15625 544.917969 738.832031 556.726563 702.097656 584.019531 677.945313 584.019531 653.226563 597.105469 622.515625 603.730469 586.925781 603.730469 555.171875 612.4375 518.199219 612.4375 486.566406 625.21875 445.796875 625.21875 409 639.53863 375.445313 653.546875 327.980469 659.59375 284.03125 667.277344 245.960938 677.375 196.449219 682.878906 156.632813 692.894531 108.464844 692.894531 52.3125 703.320313 1.29098121e-13 703.320313 1.1637219e-13 770"></polygon>
    </g>
</svg>